# xmcd
#
# Track frame offsets:
#	150
#	19299
#	34777
#	51937
#	68882
#	83661
#	100681
#	118493
#	137122
#	156662
#	169935
#	183321
#	199438
#	221771
#	237288
#	265054
#
# Disc length: 4403 seconds
# Revision: 2
# Processed by: cddbd v1.5.2PL0 Copyright (c) Steve Scherf et al.
# Submitted via: dBpowerAMP V12.0
#
DISCID=f2113110
DTITLE=Martina McBride - Eleven
DYEAR=2011
DGENRE=Country
TTITLE0=One Night
TTITLE1=Always Be This Way
TTITLE2=I'm Gonna Love You Through It
TTITLE3=Marry Me
TTITLE4=Broken Umbrella
TTITLE5=You Can Get Your Lovin' Right Here
TTITLE6=Watcha Gonna Do
TTITLE7=Teenage Daughters
TTITLE8=Summer Of Love
TTITLE9=When You Love A Sinner
TTITLE10=Long Distance Lullaby
TTITLE11=Your In My House Now
TTITLE12=Closing Time
TTITLE13=Ask The Boy
TTITLE14=I Give It To You
TTITLE15=DATA
EXTD=
EXTT0=
EXTT1=
EXTT2=
EXTT3=
EXTT4=
EXTT5=
EXTT6=
EXTT7=
EXTT8=
EXTT9=
EXTT10=
EXTT11=
EXTT12=
EXTT13=
EXTT14=
EXTT15=
PLAYORDER=
